<?xml version="1.0" standalone="no"?>
<!DOCTYPE svg PUBLIC "-//W3C//DTD SVG 20010904//EN"
 "http://www.w3.org/TR/2001/REC-SVG-20010904/DTD/svg10.dtd">
<svg version="1.0" xmlns="http://www.w3.org/2000/svg"
 width="771.000000pt" height="324.000000pt" viewBox="0 0 771.000000 324.000000"
 preserveAspectRatio="xMidYMid meet">

<g transform="translate(0.000000,324.000000) scale(0.100000,-0.100000)"
fill="#000000" stroke="none">
<path d="M1300 3180 c0 -33 -4 -60 -10 -60 -6 0 -10 -52 -10 -135 0 -83 4
-135 10 -135 6 0 10 -48 10 -125 0 -104 2 -125 15 -125 12 0 15 20 15 119 0
69 4 122 10 126 6 4 10 62 10 141 0 83 -4 134 -10 134 -6 0 -10 27 -10 60 0
47 -3 60 -15 60 -12 0 -15 -13 -15 -60z m30 -201 c0 -84 -3 -110 -12 -107 -9
3 -14 37 -16 111 -2 91 0 107 13 107 13 0 15 -18 15 -111z"/>
<path d="M1060 3065 c0 -51 -3 -65 -15 -65 -12 0 -15 -17 -15 -90 0 -71 3 -92
15 -96 8 -4 15 -15 15 -25 0 -10 5 -19 10 -19 6 0 10 9 10 19 0 10 7 21 15 25
12 4 15 25 15 96 0 73 -3 90 -15 90 -12 0 -15 14 -15 65 0 37 -4 65 -10 65 -6
0 -10 -28 -10 -65z"/>
<path d="M566 2853 c-3 -3 -6 -57 -6 -120 0 -69 -4 -113 -10 -113 -6 0 -10
-50 -10 -130 0 -80 4 -130 10 -130 6 0 10 -27 10 -60 0 -47 3 -60 15 -60 12 0
15 13 15 60 0 33 4 60 10 60 6 0 10 50 10 130 0 80 -4 130 -10 130 -6 0 -10
45 -10 114 0 105 -6 136 -24 119z"/>
<path d="M1550 2685 c0 -49 -4 -67 -15 -71 -12 -5 -15 -25 -15 -94 l0 -88 33
-5 c17 -2 35 -3 40 0 4 2 7 44 7 93 0 69 -3 89 -15 94 -11 4 -15 22 -15 71 0
37 -4 65 -10 65 -6 0 -10 -28 -10 -65z"/>
<path d="M4593 2724 c-24 -9 -60 -35 -86 -63 -52 -56 -73 -128 -61 -208 6 -44
8 -46 17 -23 31 81 43 102 83 141 57 56 57 41 0 -22 -40 -45 -64 -94 -52 -107
3 -2 11 0 18 5 7 6 37 13 67 17 30 4 68 13 85 20 38 17 99 77 151 150 22 30
55 63 73 73 17 10 32 20 32 23 0 3 -64 6 -143 7 -105 1 -153 -2 -184 -13z"/>
<path d="M802 2695 c0 -16 2 -22 5 -12 2 9 2 23 0 30 -3 6 -5 -1 -5 -18z"/>
<path d="M803 2639 c-2 -23 3 -25 10 -4 4 8 3 16 -1 19 -4 3 -9 -4 -9 -15z"/>
<path d="M1990 2410 c0 -73 -4 -120 -10 -120 -6 0 -10 -52 -10 -135 0 -79 4
-135 10 -135 5 0 10 -28 12 -62 2 -38 8 -63 16 -66 9 -3 12 14 12 62 0 52 3
66 15 66 13 0 15 21 15 130 0 107 -3 132 -15 136 -12 5 -15 29 -15 125 0 99
-3 119 -15 119 -12 0 -15 -20 -15 -120z m30 -261 c0 -84 -3 -110 -12 -107 -9
3 -14 34 -16 98 -3 97 0 120 18 120 6 0 10 -41 10 -111z"/>
<path d="M800 2399 c0 -5 5 -7 10 -4 6 3 10 8 10 11 0 2 -4 4 -10 4 -5 0 -10
-5 -10 -11z"/>
<path d="M5162 2403 c-12 -2 -38 -19 -58 -38 l-35 -33 3 -409 c4 -461 6 -471
79 -537 33 -30 108 -72 114 -64 1 2 12 18 24 36 13 18 22 34 20 35 -2 1 -26
13 -53 27 -56 28 -83 60 -92 108 l-6 32 43 0 c58 0 110 28 131 71 16 30 18 69
18 349 0 345 -2 360 -61 403 -26 19 -87 29 -127 20z m76 -99 c22 -15 22 -16
22 -328 0 -229 -3 -315 -12 -324 -17 -17 -64 -15 -82 4 -14 13 -16 56 -16 320
0 291 1 305 20 324 24 24 38 25 68 4z"/>
<path d="M5808 2385 c-20 -14 -39 -34 -43 -45 -12 -36 -8 -916 4 -938 16 -30
61 -59 102 -67 44 -8 112 17 139 53 19 24 20 41 20 487 l0 462 -25 27 c-49 53
-136 62 -197 21z m132 -84 c6 -13 10 -169 10 -440 l0 -420 -22 -15 c-29 -20
-47 -20 -70 1 -17 15 -18 42 -18 443 0 318 3 429 12 438 20 20 76 15 88 -7z"/>
<path d="M6642 2393 c-18 -9 -42 -27 -53 -41 -19 -25 -20 -38 -17 -436 3 -455
3 -453 71 -525 28 -29 114 -79 121 -69 42 56 45 74 14 83 -39 12 -90 56 -104
91 -23 55 -19 64 26 64 47 0 97 22 122 54 16 19 18 54 18 367 0 340 0 347 -22
374 -41 52 -115 68 -176 38z m96 -89 c22 -15 22 -16 22 -324 0 -335 -1 -340
-55 -340 -54 0 -55 6 -55 336 0 291 1 305 20 324 24 24 38 25 68 4z"/>
<path d="M7497 2392 c-59 -40 -56 -13 -57 -559 l0 -503 40 0 40 0 0 476 c0
308 4 482 10 495 7 13 21 19 45 19 24 0 38 -6 45 -19 6 -13 10 -187 10 -495
l0 -476 40 0 40 0 0 501 c0 310 -4 507 -10 519 -30 55 -146 79 -203 42z"/>
<path d="M3240 1915 c0 -408 2 -491 15 -514 15 -31 86 -71 123 -71 37 0 86 25
115 59 l27 33 0 329 c0 276 -2 335 -15 359 -21 40 -86 72 -138 68 l-42 -3 -3
113 -3 112 -39 0 -40 0 0 -485z m178 163 c9 -9 12 -96 12 -330 l0 -318 -25
-12 c-37 -17 -72 3 -80 44 -3 18 -5 159 -3 314 2 220 6 285 17 297 16 20 62
22 79 5z"/>
<path d="M3650 2013 c1 -412 7 -509 39 -572 23 -43 80 -95 123 -110 24 -9 30
-6 48 19 27 37 25 45 -9 60 -36 14 -76 55 -93 95 -10 23 -13 136 -16 463 l-3
432 -45 0 -44 0 0 -387z"/>
<path d="M4003 1901 l2 -500 30 -31 c39 -41 94 -57 146 -43 22 6 42 6 45 2 3
-5 25 -9 49 -9 l43 0 -16 33 c-15 28 -17 88 -20 540 l-3 507 -39 0 -40 0 0
-476 c0 -308 -4 -482 -10 -495 -7 -13 -21 -19 -45 -19 -24 0 -38 6 -45 19 -6
13 -10 187 -10 495 l0 476 -45 0 -44 0 2 -499z"/>
<path d="M4450 2379 c-9 -16 -9 -28 -1 -46 9 -20 17 -24 49 -21 36 3 37 4 37
43 0 39 -1 40 -37 43 -29 3 -39 -1 -48 -19z"/>
<path d="M4754 2390 c-11 -4 -33 -22 -47 -40 l-27 -32 0 -450 c0 -435 1 -451
20 -478 27 -37 98 -65 145 -56 37 7 105 59 105 81 0 7 -17 19 -37 28 -35 14
-37 13 -58 -11 -27 -32 -71 -25 -85 14 -6 15 -10 192 -10 422 0 344 2 401 16
420 18 26 59 29 84 7 15 -14 21 -14 53 0 42 17 43 22 21 53 -32 45 -120 66
-180 42z"/>
<path d="M6219 2361 l-39 -39 0 -455 0 -455 28 -30 c59 -63 164 -64 216 -1 14
17 26 34 26 39 0 4 -16 14 -36 22 -34 14 -38 13 -60 -9 -28 -28 -48 -29 -74
-3 -19 19 -20 33 -20 434 0 364 2 417 16 430 20 20 62 21 84 1 15 -14 21 -14
53 0 42 17 43 22 21 53 -23 34 -67 52 -125 52 -46 0 -55 -4 -90 -39z"/>
<path d="M7054 2388 c-4 -7 -14 -23 -22 -35 -13 -21 -11 -23 42 -48 54 -26 73
-47 90 -102 7 -21 4 -23 -34 -23 -53 0 -101 -21 -128 -55 -22 -27 -22 -34 -22
-362 0 -378 0 -377 75 -413 47 -23 71 -25 111 -10 19 8 30 8 38 0 5 -5 27 -10
48 -10 37 0 38 1 26 23 -10 16 -14 125 -19 432 -6 449 -11 490 -65 546 -27 28
-99 69 -122 69 -6 0 -14 -6 -18 -12z m104 -310 c9 -9 12 -95 12 -324 0 -271
-2 -315 -16 -328 -19 -20 -44 -20 -69 -2 -18 13 -19 31 -19 324 1 238 4 315
14 326 15 19 61 21 78 4z"/>
<path d="M993 2283 c-13 -2 -23 -10 -23 -17 0 -8 43 -54 95 -103 52 -49 95
-97 95 -106 0 -10 -11 -19 -27 -23 -107 -23 -185 -68 -293 -167 l-55 -51 -95
3 c-52 1 -106 -2 -120 -8 -19 -8 -12 -9 33 -5 51 4 58 3 55 -12 -2 -10 -13
-18 -25 -19 -32 -2 -42 -15 -12 -15 24 -1 24 -1 4 -17 -19 -15 -19 -15 8 -9
20 5 27 3 22 -5 -8 -12 14 -31 27 -23 4 3 8 14 8 25 0 10 4 19 10 19 15 0 1
-29 -49 -105 -45 -68 -62 -100 -131 -252 -18 -40 -37 -73 -41 -73 -5 0 -9 -7
-9 -15 0 -31 -40 -38 -185 -32 -123 4 -135 4 -95 -7 64 -18 146 -60 207 -108
114 -88 141 -165 110 -314 l-13 -62 23 15 c61 40 89 138 101 344 l8 147 41 54
c110 146 307 229 513 215 128 -8 158 -25 34 -19 -64 3 -108 1 -120 -6 -15 -9
1 -11 66 -8 47 2 103 1 124 -3 l40 -6 -45 -39 c-56 -49 -100 -68 -168 -75 -57
-6 -77 -24 -40 -36 17 -6 19 -9 8 -17 -11 -8 -11 -9 2 -5 20 6 79 -13 105 -33
11 -9 15 -10 10 -2 -5 9 9 12 61 12 76 1 136 21 241 83 76 44 120 47 195 13
29 -13 59 -26 68 -29 26 -8 23 -93 -5 -180 -14 -42 -27 -88 -29 -104 -2 -15
-9 -41 -15 -56 -7 -16 -12 -35 -12 -43 0 -8 -7 -26 -16 -39 -9 -14 -14 -31
-11 -39 4 -9 0 -12 -12 -9 -13 3 -17 12 -13 31 4 26 5 177 1 367 -2 73 1 89
12 87 11 -3 11 -1 2 9 -10 10 -37 0 -135 -49 -68 -34 -130 -62 -138 -62 -13 0
-13 -1 0 -10 8 -5 11 -10 5 -10 -6 0 -9 -42 -8 -108 0 -59 2 -153 3 -209 1
-57 -1 -107 -5 -113 -3 -5 -2 -10 4 -10 6 0 8 -7 5 -15 -4 -8 -12 -15 -20 -15
-19 0 -18 -19 3 -42 15 -16 15 -18 1 -13 -39 15 -69 -63 -38 -100 8 -9 8 -15
2 -15 -6 0 -12 6 -15 13 -3 9 -9 9 -26 -1 -18 -11 -31 -8 -93 18 -39 17 -73
29 -75 26 -6 -6 43 -38 122 -81 80 -43 79 -43 -114 19 -255 81 -390 101 -636
93 -162 -5 -249 -24 -348 -74 -56 -28 -150 -93 -144 -99 2 -3 34 5 72 17 179
55 420 38 687 -47 83 -27 108 -39 114 -56 4 -13 9 -17 13 -9 6 8 20 6 52 -8
24 -10 76 -31 116 -45 56 -21 72 -32 75 -49 3 -20 8 -22 58 -19 66 3 89 -7 66
-31 -12 -12 -23 -13 -53 -6 -21 5 -47 11 -58 13 -11 2 -56 21 -100 43 -44 22
-96 45 -115 51 -56 18 -257 70 -355 93 -121 27 -361 36 -465 16 l-75 -15 126
6 c153 6 245 -6 432 -59 169 -48 304 -103 335 -136 12 -13 22 -20 22 -14 0 6
16 3 38 -6 20 -9 51 -19 67 -24 17 -4 61 -19 99 -32 64 -24 72 -30 147 -121
44 -53 84 -94 89 -91 7 4 26 104 21 113 0 1 8 11 18 21 13 13 45 23 96 30 113
16 121 27 25 34 -45 3 -84 8 -87 10 -3 3 -1 18 4 34 l9 27 125 -3 c316 -7 508
110 539 328 4 32 6 69 3 84 -5 27 -6 26 -28 -20 -78 -167 -210 -235 -430 -219
-105 7 -137 14 -132 30 2 7 35 10 98 8 163 -6 282 33 360 116 24 26 35 39 24
30 -55 -46 -232 -98 -332 -98 -63 0 -133 19 -133 37 0 8 7 27 15 42 8 16 11
31 8 35 -4 3 -1 6 5 6 6 0 18 -10 26 -22 9 -12 16 -18 16 -12 0 6 -9 19 -20
29 -14 13 -17 22 -10 29 5 5 10 31 10 57 0 26 4 50 10 54 5 3 7 12 4 19 -3 8
3 16 15 19 11 3 21 1 23 -5 2 -5 13 -5 28 1 24 9 24 10 3 10 -28 1 -21 27 9
35 17 4 19 8 9 19 -9 12 -8 16 4 21 9 3 20 16 25 28 10 21 10 20 5 -5 -3 -17
-2 -26 4 -23 17 11 40 -5 34 -22 -4 -9 -3 -14 1 -10 4 3 9 13 10 22 1 9 11 23
22 31 18 14 18 14 1 15 -11 0 -17 6 -14 13 2 6 14 12 26 11 17 -1 21 4 18 17
-3 13 0 16 11 12 9 -4 13 -2 9 4 -4 6 -1 13 7 16 7 3 16 14 19 26 5 19 4 19
-19 4 -13 -8 -24 -11 -24 -5 0 5 13 15 29 22 31 12 30 9 52 155 6 44 13 81 14
83 2 2 35 -10 74 -27 133 -57 271 -88 271 -62 0 8 -61 57 -152 121 -27 18 -48
35 -48 37 0 13 39 -4 97 -44 79 -54 159 -93 191 -93 45 0 23 36 -72 118 -70
62 -104 100 -136 154 -71 120 -156 240 -212 298 -96 101 -229 179 -387 226
-82 24 -105 37 -179 95 -46 37 -106 79 -132 93 -84 46 -201 66 -287 49z m1092
-828 c0 -25 -40 -33 -49 -10 -9 24 2 37 27 33 14 -2 22 -10 22 -23z m-505 -90
c-7 -8 -17 -15 -23 -15 -6 0 -2 7 9 15 25 19 30 19 14 0z m-143 -137 c-3 -8
-6 -5 -6 6 -1 11 2 17 5 13 3 -3 4 -12 1 -19z m87 -161 c-4 -12 -7 -33 -5 -47
2 -19 0 -22 -9 -13 -8 8 -10 28 -5 64 6 40 10 48 17 35 5 -9 6 -26 2 -39z
m-34 23 c0 -5 -5 -10 -11 -10 -5 0 -7 5 -4 10 3 6 8 10 11 10 2 0 4 -4 4 -10z
m380 -54 c0 -2 -7 -7 -16 -10 -8 -3 -12 -2 -9 4 6 10 25 14 25 6z m-396 -263
c4 -9 3 -20 -2 -25 -6 -6 -11 1 -14 16 -6 29 6 35 16 9z m-33 -86 c-11 -11
-24 40 -14 56 4 7 10 0 15 -18 4 -16 4 -33 -1 -38z m-41 -7 c0 -5 -2 -10 -4
-10 -3 0 -8 5 -11 10 -3 6 -1 10 4 10 6 0 11 -4 11 -10z m-36 -11 c-5 -8 3
-10 25 -7 22 3 31 0 31 -9 0 -10 -8 -12 -27 -7 -16 4 -31 9 -36 11 -7 4 0 23
9 23 3 0 2 -5 -2 -11z m26 -49 c13 -8 13 -10 -2 -10 -9 0 -20 5 -23 10 -8 13
5 13 25 0z m-210 -270 c-18 -12 -30 -13 -30 -2 0 4 10 9 22 9 18 2 20 0 8 -7z"/>
<path d="M4450 1760 l0 -430 40 0 40 0 1 395 c1 217 2 402 2 410 0 53 -2 55
-43 55 l-40 0 0 -430z"/>
<path d="M287 1704 c-4 -4 -7 -14 -7 -23 0 -11 3 -12 11 -4 6 6 10 16 7 23 -2
6 -7 8 -11 4z"/>
<path d="M650 1690 c-13 -8 -12 -10 3 -10 9 0 17 5 17 10 0 12 -1 12 -20 0z"/>
<path d="M302 1580 c0 -14 2 -19 5 -12 2 6 2 18 0 25 -3 6 -5 1 -5 -13z"/>
<path d="M1023 1523 c-13 -2 -23 -9 -23 -14 0 -6 8 -8 18 -5 12 4 19 1 19 -7
0 -15 -33 -12 -42 3 -13 21 -145 -44 -206 -102 -25 -23 -38 -37 -29 -30 9 6
21 12 27 12 6 0 13 7 16 15 7 16 63 52 124 79 38 17 43 17 58 3 16 -17 62 -9
58 9 -1 5 6 17 14 27 17 18 14 19 -34 10z"/>
<path d="M360 1480 c6 -11 13 -20 16 -20 2 0 0 9 -6 20 -6 11 -13 20 -16 20
-2 0 0 -9 6 -20z"/>
<path d="M1195 1480 c-3 -5 -2 -10 4 -10 5 0 13 5 16 10 3 6 2 10 -4 10 -5 0
-13 -4 -16 -10z"/>
<path d="M1228 1293 c7 -3 16 -2 19 1 4 3 -2 6 -13 5 -11 0 -14 -3 -6 -6z"/>
<path d="M661 1184 c0 -11 3 -14 6 -6 3 7 2 16 -1 19 -3 4 -6 -2 -5 -13z"/>
<path d="M5418 1183 c6 -2 18 -2 25 0 6 3 1 5 -13 5 -14 0 -19 -2 -12 -5z"/>
<path d="M3263 1145 c0 -22 2 -30 4 -17 2 12 2 30 0 40 -3 9 -5 -1 -4 -23z"/>
<path d="M3631 1164 c0 -11 3 -14 6 -6 3 7 2 16 -1 19 -3 4 -6 -2 -5 -13z"/>
<path d="M3773 1173 c9 -2 23 -2 30 0 6 3 -1 5 -18 5 -16 0 -22 -2 -12 -5z"/>
<path d="M3918 1173 c6 -2 18 -2 25 0 6 3 1 5 -13 5 -14 0 -19 -2 -12 -5z"/>
<path d="M4253 1173 c9 -2 23 -2 30 0 6 3 -1 5 -18 5 -16 0 -22 -2 -12 -5z"/>
<path d="M4438 1173 c7 -3 16 -2 19 1 4 3 -2 6 -13 5 -11 0 -14 -3 -6 -6z"/>
<path d="M4818 1173 c7 -3 16 -2 19 1 4 3 -2 6 -13 5 -11 0 -14 -3 -6 -6z"/>
<path d="M4978 1173 c7 -3 16 -2 19 1 4 3 -2 6 -13 5 -11 0 -14 -3 -6 -6z"/>
<path d="M5190 1176 c0 -2 11 -6 25 -8 13 -3 22 -1 19 3 -5 9 -44 13 -44 5z"/>
<path d="M6178 1173 c6 -2 18 -2 25 0 6 3 1 5 -13 5 -14 0 -19 -2 -12 -5z"/>
<path d="M6508 1173 c6 -2 18 -2 25 0 6 3 1 5 -13 5 -14 0 -19 -2 -12 -5z"/>
<path d="M6502 1130 c0 -19 2 -27 5 -17 2 9 2 25 0 35 -3 9 -5 1 -5 -18z"/>
<path d="M6952 1140 c0 -14 2 -19 5 -12 2 6 2 18 0 25 -3 6 -5 1 -5 -13z"/>
<path d="M4298 1138 c20 -26 11 -61 -18 -69 -14 -4 -18 -7 -8 -8 47 -3 68 51
31 80 -16 13 -17 12 -5 -3z"/>
<path d="M5024 1025 c0 -66 1 -92 3 -57 2 34 2 88 0 120 -2 31 -3 3 -3 -63z"/>
<path d="M7090 1136 c0 -2 7 -9 15 -16 9 -7 15 -8 15 -2 0 5 -7 12 -15 16 -8
3 -15 4 -15 2z"/>
<path d="M6774 1025 c0 -60 1 -84 3 -52 2 32 2 81 0 110 -2 29 -3 3 -3 -58z"/>
<path d="M5490 1111 c0 -6 4 -13 10 -16 6 -3 7 1 4 9 -7 18 -14 21 -14 7z"/>
<path d="M3263 1030 c0 -41 2 -58 4 -37 2 20 2 54 0 75 -2 20 -4 3 -4 -38z"/>
<path d="M4180 1081 c0 -6 4 -13 10 -16 6 -3 7 1 4 9 -7 18 -14 21 -14 7z"/>
<path d="M5191 1074 c0 -11 3 -14 6 -6 3 7 2 16 -1 19 -3 4 -6 -2 -5 -13z"/>
<path d="M7123 1045 c0 -27 2 -38 4 -22 2 15 2 37 0 50 -2 12 -4 0 -4 -28z"/>
<path d="M5503 1045 c0 -22 2 -30 4 -17 2 12 2 30 0 40 -3 9 -5 -1 -4 -23z"/>
<path d="M4530 1066 c0 -2 8 -10 18 -17 15 -13 16 -12 3 4 -13 16 -21 21 -21
13z"/>
<path d="M4840 1051 c0 -6 4 -13 10 -16 6 -3 7 1 4 9 -7 18 -14 21 -14 7z"/>
<path d="M4726 1033 c-6 -14 -5 -15 5 -6 7 7 10 15 7 18 -3 3 -9 -2 -12 -12z"/>
<path d="M5193 965 c0 -27 2 -38 4 -22 2 15 2 37 0 50 -2 12 -4 0 -4 -28z"/>
<path d="M6503 960 c0 -25 2 -35 4 -22 2 12 2 32 0 45 -2 12 -4 2 -4 -23z"/>
<path d="M5735 966 c10 -14 19 -26 22 -26 7 0 -17 39 -28 46 -6 3 -3 -5 6 -20z"/>
<path d="M7098 968 c-10 -10 -14 -18 -9 -18 10 0 36 29 30 34 -2 1 -12 -6 -21
-16z"/>
<path d="M4876 957 c3 -10 9 -15 12 -12 3 3 0 11 -7 18 -10 9 -11 8 -5 -6z"/>
<path d="M6057 949 c4 -13 8 -18 11 -10 2 7 -1 18 -6 23 -8 8 -9 4 -5 -13z"/>
<path d="M3261 934 c0 -11 3 -14 6 -6 3 7 2 16 -1 19 -3 4 -6 -2 -5 -13z"/>
<path d="M1759 903 c-7 -10 -9 -15 -5 -11 5 4 15 3 22 -3 10 -8 13 -6 11 10
-2 26 -10 27 -28 4z"/>
<path d="M1745 870 c-8 -12 2 -30 17 -30 5 0 7 7 4 16 -5 14 -4 15 9 4 8 -7
15 -8 15 -2 0 5 -7 13 -16 16 -21 8 -22 8 -29 -4z"/>
<path d="M1700 818 c0 -4 3 -7 8 -7 23 4 34 -3 28 -17 -3 -9 -2 -12 5 -9 6 4
8 13 5 20 -3 8 3 16 12 18 9 3 0 4 -20 4 -21 0 -38 -4 -38 -9z"/>
<path d="M1673 792 c-7 -12 -8 -24 -2 -33 7 -11 9 -10 9 4 0 10 4 16 9 13 5
-4 7 3 4 14 -6 24 -6 24 -20 2z"/>
<path d="M3315 765 c-54 -27 -78 -76 -83 -168 -3 -71 0 -88 20 -126 13 -25 36
-54 51 -65 28 -21 35 -21 1020 -21 1119 0 1025 -7 1067 79 29 61 28 176 -2
236 -44 86 36 80 -1068 80 -843 0 -979 -2 -1005 -15z m283 -87 c15 -15 16 -64
2 -73 -7 -4 -7 -12 0 -25 16 -29 13 -80 -5 -80 -9 0 -15 9 -15 24 0 40 -11 56
-36 56 -21 0 -24 -4 -24 -40 0 -29 -4 -40 -15 -40 -12 0 -15 17 -15 95 l0 95
48 0 c26 0 53 -5 60 -12z m140 0 c16 -16 15 -48 -2 -48 -7 0 -16 9 -19 21 -4
13 -12 20 -24 17 -15 -3 -19 -15 -21 -71 -2 -56 0 -68 14 -74 12 -4 22 1 32
15 18 27 32 28 32 3 0 -45 -62 -68 -94 -35 -20 19 -23 153 -4 172 16 16 70 16
86 0z m209 -56 l31 -67 1 68 c1 52 4 67 16 67 12 0 15 -17 15 -95 0 -88 -1
-95 -20 -95 -15 0 -27 17 -49 65 -16 36 -32 65 -34 65 -2 0 -2 -29 0 -65 4
-58 3 -65 -14 -65 -16 0 -18 8 -17 78 2 112 2 112 22 112 11 0 27 -22 49 -68z
m202 54 c7 -9 11 -42 9 -87 -3 -68 -5 -74 -30 -89 -25 -13 -31 -13 -55 0 -26
15 -28 21 -31 89 -3 85 5 101 58 101 21 0 43 -6 49 -14z m279 -84 c2 -77 0
-92 -13 -92 -12 0 -15 14 -15 66 0 57 -3 67 -20 71 -11 3 -20 7 -20 10 0 10
45 42 55 39 6 -1 11 -44 13 -94z m152 94 c0 -2 -11 -28 -24 -57 -14 -30 -28
-71 -31 -91 -5 -24 -13 -38 -22 -38 -20 0 -11 66 17 121 11 21 20 41 20 44 0
3 -16 5 -35 5 -19 0 -35 5 -35 10 0 6 25 10 55 10 30 0 55 -2 55 -4z m90 -52
c0 -43 4 -60 18 -70 16 -12 16 -13 0 -19 -10 -4 -18 -16 -18 -26 0 -10 -7 -19
-15 -19 -8 0 -15 9 -15 20 0 16 -7 20 -30 20 -38 0 -38 14 0 90 40 78 60 79
60 4z m150 46 c0 -5 -13 -10 -29 -10 -20 0 -30 -6 -34 -20 -4 -17 0 -20 24
-20 33 0 49 -23 49 -69 0 -32 -29 -71 -53 -71 -22 0 -57 31 -57 51 0 26 26 24
33 -2 9 -34 41 -20 45 20 5 45 -10 59 -43 41 -14 -7 -26 -11 -28 -9 -2 2 -2
25 1 52 l4 47 44 0 c24 0 44 -4 44 -10z m134 -6 c12 -32 5 -61 -24 -100 -37
-49 -37 -54 0 -54 17 0 30 -4 30 -10 0 -5 -25 -10 -55 -10 -55 0 -55 0 -44 23
7 12 25 38 40 58 33 42 40 92 12 87 -10 -2 -19 -13 -21 -26 -2 -12 -10 -22
-18 -22 -17 0 -19 41 -2 58 18 18 75 15 82 -4z m146 6 c0 -5 -9 -24 -20 -42
-11 -18 -25 -56 -31 -85 -7 -32 -18 -53 -26 -53 -7 0 -13 8 -13 18 1 15 25 89
45 135 6 14 2 17 -29 17 -20 0 -36 5 -36 10 0 6 25 10 55 10 30 0 55 -4 55
-10z m118 -2 c7 -7 12 -43 12 -90 0 -75 -1 -79 -25 -88 -33 -13 -71 2 -78 32
-10 35 -8 103 3 132 8 21 16 26 43 26 18 0 38 -5 45 -12z m-1003 -98 c-5 -8
-11 -8 -17 -2 -6 6 -7 16 -3 22 5 8 11 8 17 2 6 -6 7 -16 3 -22z m5 -65 c0 -8
-7 -15 -15 -15 -8 0 -15 7 -15 15 0 8 7 15 15 15 8 0 15 -7 15 -15z"/>
<path d="M3520 642 c0 -36 4 -40 36 -34 20 4 25 10 22 31 -2 20 -9 27 -30 29
-25 3 -28 0 -28 -26z"/>
<path d="M4074 657 c-3 -8 -4 -41 -2 -73 3 -55 5 -59 28 -59 24 0 25 2 25 70
0 65 -2 70 -23 73 -12 2 -24 -3 -28 -11z"/>
<path d="M4621 600 c-9 -26 -8 -30 9 -30 14 0 18 7 18 30 -1 17 -4 30 -9 30
-4 0 -12 -13 -18 -30z"/>
<path d="M5156 648 c-8 -30 -8 -92 0 -112 3 -9 15 -16 25 -16 17 0 19 8 19 75
0 67 -2 75 -19 75 -11 0 -21 -9 -25 -22z"/>
<path d="M1715 759 c-4 -6 -5 -12 -2 -15 2 -3 7 2 10 11 7 17 1 20 -8 4z"/>
<path d="M1686 735 c-3 -8 -1 -15 4 -15 6 0 10 7 10 15 0 8 -2 15 -4 15 -2 0
-6 -7 -10 -15z"/>
<path d="M2176 463 c-6 -14 -5 -15 5 -6 7 7 10 15 7 18 -3 3 -9 -2 -12 -12z"/>
<path d="M2050 320 c-8 -5 -12 -12 -9 -15 4 -3 12 1 19 10 14 17 11 19 -10 5z"/>
<path d="M960 259 c0 -4 7 -22 15 -40 8 -19 14 -27 14 -19 0 14 -28 72 -29 59z"/>
</g>
</svg>
